<?xml version="1.0" encoding="utf-8"?>
<!-- Uploaded to: SVG Repo, www.svgrepo.com, Generator: SVG Repo Mixer Tools -->
<svg width="800px" height="800px" viewBox="0 0 32 32" fill="none" xmlns="http://www.w3.org/2000/svg">
<g clip-path="url(#clip0_901_2858)">
<path d="M31 2V28C31 28 31 31 28 31H4C7 31 7 28 7 28V11V2C7 2 7 1 8 1H30C30 1 31 1 31 2Z" fill="#FFC44D"/>
<path d="M7 11V28C7 28 7 31 4 31C4 31 1 30.94 1 28V12C1 12 1 11 2 11H7Z" fill="#668077"/>
<path d="M7 25V2.005C7 2.005 7 1 8 1H30C30 1 31 1.005 31 2.005V28.005C31 28.005 31 31 28 31H4C4 31 1 31.005 1 27.005V12.005C1 12.005 1 11 2 11H4M13 7H18M13 11H25M13 15H25M13 19H25M13 23H25" stroke="#000000" stroke-width="2" stroke-linecap="round" stroke-linejoin="round"/>
</g>
<defs>
<clipPath id="clip0_901_2858">
<rect width="32" height="32" fill="white"/>
</clipPath>
</defs>
</svg>